# xmcd
#
# Track frame offsets:
#	150
#	15804
#	29711
#	43224
#	60734
#	75754
#	91983
#	111460
#	125032
#	145310
#	159805
#	180152
#	201772
#	220916
#	237899
#	255205
#	274627
#	289709
#	302948
#	319128
#
# Disc length: 4677 seconds
#
# Revision: 1
# Processed by: cddbd v1.5.2PL0 Copyright (c) Steve Scherf et al.
# Submitted via: audiograbber 1.83.01
#
DISCID=0e124314
DTITLE=George Strait - The Cowboy Rides Away: Live From AT&T Stadium
DYEAR=2014
DGENRE=Country
TTITLE0=Check Yes Or No
TTITLE1=The Love Bug (Feat. Vince Gill)
TTITLE2=Fool Hearted Memory
TTITLE3=Arkansas Dave (Feat. Buba Strait)
TTITLE4=Cowboys Like Us (Feat. Eric Church)
TTITLE5=That's What Breaking Hearts Do (Feat. Sheryl Crow)
TTITLE6=Marina Del Rey
TTITLE7=Here For A Good Time
TTITLE8=I Can Still Make Cheyenne
TTITLE9=Jackson (Feat. Martina McBride)
TTITLE10=A Showman's Life (Feat. Faith Hill)
TTITLE11=Murder On Music Row (Feat. Alan Jackson)
TTITLE12=The Chair
TTITLE13=Give It All We Got Tonight
TTITLE14=Run (Feat. Miranda Lambert)
TTITLE15=I'll Always Remember You
TTITLE16=Ocean Front Property (Feat. Kenny Chesney)
TTITLE17=Troubadour
TTITLE18=All My Ex's Live In Texas
TTITLE19=The Cowboy Rides Away
EXTD=
EXTT0=
EXTT1=
EXTT2=
EXTT3=
EXTT4=
EXTT5=
EXTT6=
EXTT7=
EXTT8=
EXTT9=
EXTT10=
EXTT11=
EXTT12=
EXTT13=
EXTT14=
EXTT15=
EXTT16=
EXTT17=
EXTT18=
EXTT19=
PLAYORDER=
